/* XPM */
static char * xpm_paint_xpm[] = {
"20 20 81 1",
" 	c None",
".	c #6C3C07",
"+	c #804910",
"@	c #7A4309",
"#	c #86531D",
"$	c #B37330",
"%	c #74410C",
"&	c #82521E",
"*	c #CC863C",
"=	c #99652D",
"-	c #683A08",
";	c #7F501E",
">	c #C77E31",
",	c #B77936",
"'	c #704518",
")	c #794B19",
"!	c #B1712D",
"~	c #BA7125",
"{	c #8D602F",
"]	c #693A09",
"^	c #734615",
"/	c #A66B2C",
"(	c #BF721F",
"_	c #9A642A",
":	c #784A1A",
"<	c #6C3F0F",
"[	c #9A662F",
"}	c #CB7720",
"|	c #9D5F1C",
"1	c #855827",
"2	c #6F400D",
"3	c #837868",
"4	c #847058",
"5	c #C27626",
"6	c #AB6215",
"7	c #8B5B29",
"8	c #7B4B18",
"9	c #8B8D89",
"0	c #ACAEAB",
"a	c #B8B9B7",
"b	c #8E887D",
"c	c #8A643B",
"d	c #815322",
"e	c #9EA09B",
"f	c #DADBDA",
"g	c #E0E0E0",
"h	c #A5A6A4",
"i	c #8C8373",
"j	c #7B562B",
"k	c #B5B6B4",
"l	c #E8E8E8",
"m	c #C3C3C3",
"n	c #A2A3A1",
"o	c #92938D",
"p	c #999C98",
"q	c #D3D4D2",
"r	c #D7D7D7",
"s	c #AAAAA9",
"t	c #949591",
"u	c #272726",
"v	c #555654",
"w	c #8D8D8D",
"x	c #A5A5A4",
"y	c #91938F",
"z	c #161616",
"A	c #7C7C7C",
"B	c #717171",
"C	c #313131",
"D	c #4A4B48",
"E	c #000000",
"F	c #121212",
"G	c #727272",
"H	c #6B6B6B",
"I	c #303030",
"J	c #171717",
"K	c #050505",
"L	c #1D1D1D",
"M	c #252525",
"N	c #151515",
"O	c #040404",
"P	c #060606",
"                    ",
"                .   ",
"               +@   ",
"              #$%   ",
"             &*=-   ",
"            ;>,'    ",
"           )!~{]    ",
"          ^/(_:     ",
"         <[}|12     ",
"        345678      ",
"       90abcd       ",
"       efghij       ",
"       klmno        ",
"      pqrst         ",
"     uvwxy          ",
"    zABCD           ",
"   EFGHIJ           ",
"  EEKLMN            ",
"  EEEOPO            ",
"                    "};
