/* XPM */
static char * xpm_up_xpm[] = {
"24 24 130 2",
"  	c None",
". 	c #3C7604",
"+ 	c #558B22",
"@ 	c #558D22",
"# 	c #4B8118",
"$ 	c #9CC575",
"% 	c #9AC572",
"& 	c #4B8317",
"* 	c #457C10",
"= 	c #9CC376",
"- 	c #72AF3A",
"; 	c #6FAD35",
"> 	c #96C16D",
", 	c #447B0F",
"' 	c #3E7609",
") 	c #96BF70",
"! 	c #85B952",
"~ 	c #5AA118",
"{ 	c #569E11",
"] 	c #79B343",
"^ 	c #8EBB64",
"/ 	c #3D7808",
"( 	c #3C7603",
"_ 	c #8CB665",
": 	c #94C269",
"< 	c #63A623",
"[ 	c #5EA31C",
"} 	c #59A016",
"| 	c #549D0E",
"1 	c #83B850",
"2 	c #82B255",
"3 	c #3B7503",
"4 	c #3A7604",
"5 	c #82AC59",
"6 	c #A2CA7D",
"7 	c #6CAC31",
"8 	c #66A828",
"9 	c #61A521",
"0 	c #5CA21A",
"a 	c #549E0F",
"b 	c #4F9B08",
"c 	c #8DBE5F",
"d 	c #76A748",
"e 	c #3B7604",
"f 	c #74A149",
"g 	c #ADD18D",
"h 	c #77B140",
"i 	c #6FAD34",
"j 	c #6BAC2D",
"k 	c #68AB27",
"l 	c #61A81C",
"m 	c #53A109",
"n 	c #51A007",
"o 	c #56A10E",
"p 	c #95C36A",
"q 	c #689A39",
"r 	c #649437",
"s 	c #B5D598",
"t 	c #84B851",
"u 	c #79B541",
"v 	c #77B53B",
"w 	c #73B434",
"x 	c #6EB32C",
"y 	c #5CAA11",
"z 	c #57A80A",
"A 	c #57A709",
"B 	c #56A609",
"C 	c #5EA817",
"D 	c #9CC872",
"E 	c #5B8E29",
"F 	c #588A28",
"G 	c #BBD7A0",
"H 	c #BFDBA5",
"I 	c #BEDBA3",
"J 	c #BDDCA0",
"K 	c #7DBB41",
"L 	c #79BC3A",
"M 	c #65B319",
"N 	c #5CB00C",
"O 	c #5CAF0C",
"P 	c #AAD581",
"Q 	c #A9D380",
"R 	c #A8D180",
"S 	c #A0CB79",
"T 	c #4F851F",
"U 	c #3B7504",
"V 	c #3A7304",
"W 	c #3D7805",
"X 	c #C0DEA2",
"Y 	c #82C145",
"Z 	c #72BB2A",
"` 	c #60B60E",
" .	c #61B80E",
"..	c #62B80E",
"+.	c #61B70E",
"@.	c #ACD982",
"#.	c #3E7905",
"$.	c #C2E1A5",
"%.	c #87C74A",
"&.	c #66BA14",
"*.	c #65BD10",
"=.	c #67BF10",
"-.	c #67C011",
";.	c #66BF10",
">.	c #AFDC83",
",.	c #C4E3A6",
"'.	c #7CC338",
").	c #69C311",
"!.	c #6BC712",
"~.	c #6CC813",
"{.	c #6BC612",
"].	c #B0DF84",
"^.	c #C6E4A9",
"/.	c #74C129",
"(.	c #6FCC14",
"_.	c #71D015",
":.	c #6DCA13",
"<.	c #B1E084",
"[.	c #6CBD1E",
"}.	c #66BE10",
"|.	c #6AC412",
"1.	c #6DC913",
"2.	c #6ECB14",
"3.	c #6CC713",
"4.	c #B1DF84",
"5.	c #C5E3A9",
"6.	c #AFDA85",
"7.	c #AEDB83",
"8.	c #B0DE83",
"9.	c #AFDD83",
"                                                ",
"                                                ",
"                                                ",
"                                                ",
"                        .                       ",
"                      + @                       ",
"                    # $ % &                     ",
"                  * = - ; > ,                   ",
"                ' ) ! ~ { ] ^ /                 ",
"              ( _ : < [ } | 1 2 3               ",
"            4 5 6 7 8 9 0 a b c d e             ",
"            f g h i j k l m n o p q             ",
"          r s t u v w x y z A B C D E           ",
"        F G H I J K L M N N O P Q R S T         ",
"      U V V V W X Y Z `  ...+.@.#.V V V 4       ",
"              V $.%.&.*.=.-.;.>.V               ",
"              V ,.'.*.).!.~.{.].V               ",
"              V ^./.;.{.(._.:.<.V               ",
"              V ^.[.}.|.1.2.3.4.V               ",
"              V 5.6.7.8.4.<.4.9.V               ",
"              V V V V V V V V V V               ",
"                                                ",
"                                                ",
"                                                "};
