/* XPM */
static char * xpm_redo_xpm[] = {
"24 24 59 1",
" 	c None",
".	c #4E9A06",
"+	c #8AE234",
"@	c #7CDD1E",
"#	c #97A020",
"$	c #94D63C",
"%	c #85DD30",
"&	c #79D71E",
"*	c #72CA1C",
"=	c #9ADC3F",
"-	c #8FE53C",
";	c #80D52B",
">	c #7AD422",
",	c #7CD623",
"'	c #7DDA24",
")	c #77D31D",
"!	c #68BF13",
"~	c #69C113",
"{	c #91E53F",
"]	c #8CE435",
"^	c #77D41D",
"/	c #75D01C",
"(	c #76D816",
"_	c #6FCB15",
":	c #8CCF2D",
"<	c #92E540",
"[	c #76D31C",
"}	c #74D416",
"|	c #78DB17",
"1	c #6BC414",
"2	c #8BE434",
"3	c #7AD91E",
"4	c #79D61E",
"5	c #8CE437",
"6	c #91E53E",
"7	c #90E53E",
"8	c #8FE53B",
"9	c #6AC214",
"0	c #6ECA14",
"a	c #90E53D",
"b	c #7DDA22",
"c	c #8CEA30",
"d	c #91D32B",
"e	c #8EE43A",
"f	c #89E92B",
"g	c #75D516",
"h	c #93E542",
"i	c #A1EC57",
"j	c #99EB46",
"k	c #A7B432",
"l	c #8AE331",
"m	c #94A303",
"n	c #8BE332",
"o	c #87E02C",
"p	c #52920D",
"q	c #82D82A",
"r	c #4D9905",
"s	c #67AC0F",
"t	c #4C9705",
"                        ",
"             .          ",
"             ..         ",
"             .+.        ",
"             .++.       ",
"          ....+@+.      ",
"        .#$+++%&*+.     ",
"       .=-;>,')&!~+.    ",
"      .{]))^/)(_!~~+.   ",
"     .:<[////}|1!~+.    ",
"     .234]5677890+.     ",
"     .abcd....e0+.      ",
"     .7fg.   .{+.       ",
"     .hi.    .+.        ",
"     .]j.    ..         ",
"     .kl.    .          ",
"      mn.               ",
"      .op               ",
"       .qr              ",
"        .st             ",
"                        ",
"                        ",
"                        ",
"                        "};
