/* XPM */
static char * xpm_flood_xpm[] = {
"20 20 135 2",
"  	c None",
". 	c #1E1E1E",
"+ 	c #808080",
"@ 	c #6C6C6C",
"# 	c #3E3E3E",
"$ 	c #7C7C7C",
"% 	c #CBCBCB",
"& 	c #989898",
"* 	c #404040",
"= 	c #414141",
"- 	c #7D7D7D",
"; 	c #C6C6C6",
"> 	c #DBDBDB",
", 	c #9D9D9D",
"' 	c #8C8C8C",
") 	c #424141",
"! 	c #838383",
"~ 	c #C9C9C9",
"{ 	c #DCDCDC",
"] 	c #E8E8E8",
"^ 	c #A5A5A5",
"/ 	c #A0A0A0",
"( 	c #C8C8C8",
"_ 	c #828181",
": 	c #4F423E",
"< 	c #844233",
"[ 	c #BC5037",
"} 	c #A34E3C",
"| 	c #C3C3C3",
"1 	c #DDDDDD",
"2 	c #E9E9E9",
"3 	c #E3E3E3",
"4 	c #959595",
"5 	c #8A8A8A",
"6 	c #D0D0D0",
"7 	c #CCCCCC",
"8 	c #948E8D",
"9 	c #7E574E",
"0 	c #BC5942",
"a 	c #C26A56",
"b 	c #CA7968",
"c 	c #A44732",
"d 	c #878787",
"e 	c #DFDFDF",
"f 	c #F1F1F1",
"g 	c #8E8E8E",
"h 	c #858585",
"i 	c #BABABA",
"j 	c #C2C2C2",
"k 	c #8D8684",
"l 	c #73493F",
"m 	c #C9735F",
"n 	c #DD9584",
"o 	c #C4705C",
"p 	c #818181",
"q 	c #BEBEBE",
"r 	c #E1E1E1",
"s 	c #F0F0F0",
"t 	c #F7F7F7",
"u 	c #929292",
"v 	c #B9B9B9",
"w 	c #CACACA",
"x 	c #BDBDBD",
"y 	c #B4B4B4",
"z 	c #817F7F",
"A 	c #92726A",
"B 	c #A66251",
"C 	c #CB7C69",
"D 	c #A45A49",
"E 	c #343434",
"F 	c #E6E6E6",
"G 	c #EFEFEF",
"H 	c #F6F6F6",
"I 	c #F8F8F8",
"J 	c #EAEAEA",
"K 	c #BFBFBF",
"L 	c #B6B6B6",
"M 	c #B8B8B8",
"N 	c #9B9B9B",
"O 	c #757575",
"P 	c #4A4A4A",
"Q 	c #9E5645",
"R 	c #A35E4E",
"S 	c #5A5A5A",
"T 	c #F4F4F4",
"U 	c #F3F3F3",
"V 	c #EDEDED",
"W 	c #E0E0E0",
"X 	c #C7C7C7",
"Y 	c #C0C0C0",
"Z 	c #999999",
"` 	c #4E4E4E",
" .	c #383838",
"..	c #8A493A",
"+.	c #9D5240",
"@.	c #626262",
"#.	c #A8A8A8",
"$.	c #E2E2E2",
"%.	c #E7E7E7",
"&.	c #E5E5E5",
"*.	c #CDCDCD",
"=.	c #9E9E9E",
"-.	c #8C3F2E",
";.	c #98422E",
">.	c #5E5E5E",
",.	c #B0B0B0",
"'.	c #D1D1D1",
").	c #C5C5C5",
"!.	c #A1A1A1",
"~.	c #4F4F4F",
"{.	c #8A3725",
"].	c #953823",
"^.	c #4B4B4B",
"/.	c #B3B3B3",
"(.	c #424242",
"_.	c #161616",
":.	c #8E301A",
"<.	c #A03117",
"[.	c #484848",
"}.	c #949494",
"|.	c #BCBCBC",
"1.	c #9A9A9A",
"2.	c #171717",
"3.	c #842C18",
"4.	c #A63318",
"5.	c #444444",
"6.	c #5F5F5F",
"7.	c #434343",
"8.	c #212121",
"9.	c #802915",
"0.	c #882914",
"a.	c #822813",
"b.	c #6F2412",
"c.	c #5E2012",
"d.	c #541E11",
"                                        ",
"                                        ",
"                                        ",
"                .                       ",
"              + @ #                     ",
"            $ % & * =                   ",
"          - ; > , , ' )                 ",
"        ! ~ { ] ^ / ( _ : < [ }         ",
"      ' | 1 2 3 4 5 6 7 8 9 0 a b c     ",
"    d | e ] f ; g h i 1 j k l m n o     ",
"  p q r ] s t 7 u g v w x y z A B C D   ",
"E - 7 F G H I J K L ~ j M N O P   Q R   ",
"  S , e G T U V W 6 X Y Z `  .    ..+.  ",
"    @.#.$.%.&.{ *.X X =.` .       -.;.  ",
"      >.,.r '.).j ~ !.~..         {.].  ",
"        ^./.( M j !.(._.          :.<.  ",
"          [.}.|.1.P 2.            3.4.  ",
"            5.6.7.8.              9.0.  ",
"                                  a.b.  ",
"                                  c.d.  "};
