/* XPM */
static char * xpm_open_xpm[] = {
"24 24 109 2",
"  	c None",
". 	c #5B5D5A",
"+ 	c #5C5E5C",
"@ 	c #5C5E5D",
"# 	c #4F4F4D",
"$ 	c #BEBFBE",
"% 	c #64686C",
"& 	c #4D4F4C",
"* 	c #B2B3B2",
"= 	c #80807F",
"- 	c #838486",
"; 	c #565855",
"> 	c #4B4C4A",
", 	c #B9BBC1",
"' 	c #939393",
") 	c #8F9093",
"! 	c #555753",
"~ 	c #4D4F4B",
"{ 	c #B3B3B3",
"] 	c #9B9B9B",
"^ 	c #7C7C7B",
"/ 	c #7D7D7C",
"( 	c #7D7E7D",
"_ 	c #7F7F7F",
": 	c #9A9B99",
"< 	c #A4A4A4",
"[ 	c #909090",
"} 	c #8F8F8F",
"| 	c #848582",
"1 	c #9F9F9F",
"2 	c #797B79",
"3 	c #707A86",
"4 	c #436B9D",
"5 	c #3465A4",
"6 	c #3C68A1",
"7 	c #5A718D",
"8 	c #727371",
"9 	c #BBBBBB",
"0 	c #919191",
"a 	c #556F91",
"b 	c #BED2E8",
"c 	c #4D6D94",
"d 	c #6B6C6B",
"e 	c #9C9D9C",
"f 	c #7A7B7A",
"g 	c #486B97",
"h 	c #B4CAE3",
"i 	c #89AED6",
"j 	c #A3BFDE",
"k 	c #416693",
"l 	c #575855",
"m 	c #B9B9B9",
"n 	c #486A97",
"o 	c #95ADCB",
"p 	c #396296",
"q 	c #545553",
"r 	c #9D9D9D",
"s 	c #646F7A",
"t 	c #87A0BE",
"u 	c #B3CAE3",
"v 	c #98B8DB",
"w 	c #8AA4C4",
"x 	c #50504F",
"y 	c #5A6D82",
"z 	c #A4B6CB",
"A 	c #A2BFDE",
"B 	c #88ADD6",
"C 	c #87ADD5",
"D 	c #87ACD6",
"E 	c #87ACD5",
"F 	c #6D8BB0",
"G 	c #878886",
"H 	c #8193AA",
"I 	c #AEC7E2",
"J 	c #92B5D9",
"K 	c #80A9D4",
"L 	c #80A8D4",
"M 	c #80A8D3",
"N 	c #7FA8D4",
"O 	c #81A8D4",
"P 	c #92B4D9",
"Q 	c #9EBCDD",
"R 	c #3F618C",
"S 	c #7B7C79",
"T 	c #94ABC4",
"U 	c #9BBADC",
"V 	c #79A3D2",
"W 	c #79A4D1",
"X 	c #78A3D2",
"Y 	c #79A4D2",
"Z 	c #8CB1D8",
"` 	c #6C8AAF",
" .	c #696A67",
"..	c #B2C4D8",
"+.	c #87AED7",
"@.	c #719FD0",
"#.	c #719FCF",
"$.	c #709FCF",
"%.	c #729FD0",
"&.	c #87AED6",
"*.	c #446081",
"=.	c #585958",
"-.	c #6B9BCE",
";.	c #6B9ACD",
">.	c #6A9ACE",
",.	c #6A9ACD",
"'.	c #83AAD5",
").	c #839DBD",
"!.	c #30527E",
"                                                ",
"                                                ",
"                                                ",
"    . + + @ @ @ @                               ",
"  # $ $ $ $ $ $ $ %                             ",
"  & * = = = = = = - ;                           ",
"  > , ' ' ' ' ' ' ' ) ! ! ! ! ! !               ",
"  ~ { ] ^ / ( _ = = = = = = = = = !             ",
"    : < ' [ [ [ [ [ [ [ [ [ [ [ } !             ",
"    | 1 2 3 4 5 5 5 5 5 5 5 5 6 6 5 5 5 5 5 7   ",
"    8 9 0 a b b b b b b b b b b b b b b b b c   ",
"    d e f g h i i i i i i i i i i i i i i j k   ",
"    l m 0 n h i i i i i i i i i i i i i i o p   ",
"    q r s t u i i i i i i i i i i i i i v w     ",
"    x e y z A B C D E E D E B C D D D E A F     ",
"      G H I J K K L M N L M O K L L L P Q R     ",
"      S T U V V V W V X W V Y V W W V Z `       ",
"       ...+.@.@.@.#.#.$.#.#.%.@.#.#.&.&.*.      ",
"      =.-.-.-.-.-.;.>.,.;.>.-.-.;.>.'.).        ",
"        5 5 5 5 5 5 5 5 5 5 5 5 5 5 5 !.        ",
"                                                ",
"                                                ",
"                                                ",
"                                                "};
