/* XPM */
static char * xpm_save_xpm[] = {
"24 24 121 2",
"  	c None",
". 	c #4D7991",
"+ 	c #38678B",
"@ 	c #416C8A",
"# 	c #57787D",
"$ 	c #427092",
"% 	c #6296BB",
"& 	c #81ADD1",
"* 	c #74A8D3",
"= 	c #8FB6DB",
"- 	c #75A9D5",
"; 	c #63A0CE",
"> 	c #53798A",
", 	c #496E82",
"' 	c #51798A",
") 	c #67A2CE",
"! 	c #44789C",
"~ 	c #3F7296",
"{ 	c #3B6C91",
"] 	c #477DA3",
"^ 	c #74A8D4",
"/ 	c #6BA5D3",
"( 	c #4A80A8",
"_ 	c #3F6A89",
": 	c #5E7C79",
"< 	c #6D8D8E",
"[ 	c #5B7E88",
"} 	c #426E88",
"| 	c #477DA2",
"1 	c #5E9AC7",
"2 	c #5B96C1",
"3 	c #4A80A6",
"4 	c #3F6C86",
"5 	c #4D7282",
"6 	c #708A82",
"7 	c #538CB5",
"8 	c #5892BD",
"9 	c #609DCB",
"0 	c #547780",
"a 	c #5B7A72",
"b 	c #6E706B",
"c 	c #75796C",
"d 	c #688993",
"e 	c #54727B",
"f 	c #72756B",
"g 	c #F6F6F6",
"h 	c #609CCA",
"i 	c #838580",
"j 	c #ECECEC",
"k 	c #EBEBEB",
"l 	c #5089B2",
"m 	c #63A1D0",
"n 	c #D8DAD8",
"o 	c #9B9D99",
"p 	c #EAEBEA",
"q 	c #629FCE",
"r 	c #3C6D91",
"s 	c #E1E2E1",
"t 	c #949691",
"u 	c #CCCCCB",
"v 	c #E3E3E3",
"w 	c #67A3D2",
"x 	c #518BB5",
"y 	c #5C97C3",
"z 	c #5E99C6",
"A 	c #CFCFCD",
"B 	c #E6E6E6",
"C 	c #D2D6CC",
"D 	c #4E87B0",
"E 	c #5088B1",
"F 	c #CCD1C5",
"G 	c #777975",
"H 	c #CAD0C4",
"I 	c #7F817E",
"J 	c #8E8F8D",
"K 	c #E5E5E5",
"L 	c #EDEDED",
"M 	c #B8B8B8",
"N 	c #E7E7E7",
"O 	c #E9E9E8",
"P 	c #D3D8CC",
"Q 	c #E2E2E1",
"R 	c #E0E0E0",
"S 	c #B1B1B0",
"T 	c #676964",
"U 	c #D0D0D0",
"V 	c #F3F3F3",
"W 	c #C6CCC0",
"X 	c #C9CEC3",
"Y 	c #E2E3E1",
"Z 	c #F1F1F1",
"` 	c #CECECE",
" .	c #E1E1E1",
"..	c #CDCDCD",
"+.	c #CCCCCC",
"@.	c #C8C8C8",
"#.	c #DBDBDB",
"$.	c #919191",
"%.	c #989898",
"&.	c #A3A4A2",
"*.	c #B0B0B0",
"=.	c #B2B2B2",
"-.	c #BBBBBB",
";.	c #BCBCBC",
">.	c #C5C5C5",
",.	c #D1D1D1",
"'.	c #C0C0C0",
").	c #D6D6D6",
"!.	c #D7D7D7",
"~.	c #949494",
"{.	c #979797",
"].	c #A5A5A5",
"^.	c #A9A9A9",
"/.	c #ACACAC",
"(.	c #BABABA",
"_.	c #C1C1C1",
":.	c #C4C4C4",
"<.	c #C9C9C9",
"[.	c #C5C5C4",
"}.	c #C7C7C7",
"|.	c #CBCBCB",
"                                                ",
"          . + + + + @ #                         ",
"        $ % & * = - ; > ,                       ",
"      ' ) ! ~ { ] ; ^ / ( _                     ",
"    : < [       } | 1 1 2 3 4                   ",
"    5 6           { 7 8 2 9 0                   ",
"    a   b b b b c + 8 8 8 8 d e b b b b         ",
"      f g g g g g + 8 8 8 8 h + g g g g b       ",
"      i j g k k k + 8 l 8 8 m + k k n k i       ",
"      o j p g + + + 8 l 8 8 q + r + s k t       ",
"    b u v k k + h h w l x 8 2 y z + k k A       ",
"    b B v k k C r h D E D l D y r F k k j b     ",
"    G j g k k k H + h D D E y + H k k g j I     ",
"    J j K g g L k H + h E y + H k g g K j J     ",
"    M N O N K g g g P + h r P g g K K Q R S     ",
"  T U V K K K K K K K W + X K K K K Q Y Z `     ",
"  b g g g g g g g g g g g g g g g g g g g g b   ",
"  b  .` ` ` ` ` ` ` ..............+.+.+.+. .b   ",
"  b  .@.#.$.%.&.*.=.-.;.>.,.'.).'.).'.).'. .b   ",
"  b  .@.!.~.{.].^./.(._.:.,.'.).'.).'.).'. .b   ",
"  b  .<.` [._.:.'.'.'.}.}.,.'.).'.).'.).'. .b   ",
"  b |. . . . . . . . . . . . . . . . . . .@.b   ",
"    b b b b b b b b b b b b b b b b b b b b     ",
"                                                "};
