/* XPM */
static char * xpm_cut_xpm[] = {
"24 24 110 2",
"  	c None",
". 	c #8F918C",
"+ 	c #8D8F8A",
"@ 	c #888A85",
"# 	c #90928E",
"$ 	c #91938E",
"% 	c #C2C4C1",
"& 	c #9C9D99",
"* 	c #90928D",
"= 	c #D2D3D1",
"- 	c #929490",
"; 	c #939590",
"> 	c #D7D8D6",
", 	c #E2E2E2",
"' 	c #9F9F9C",
") 	c #ABACA8",
"! 	c #E3E3E3",
"~ 	c #D0D1D0",
"{ 	c #A0A19D",
"] 	c #EBEBEB",
"^ 	c #DCDDDC",
"/ 	c #9B9C98",
"( 	c #8C8E89",
"_ 	c #E3E3E2",
": 	c #E0E0E0",
"< 	c #D8D9D8",
"[ 	c #959792",
"} 	c #9D9E9A",
"| 	c #E8E8E8",
"1 	c #E1E1E1",
"2 	c #B2B3B1",
"3 	c #A4A6A2",
"4 	c #C5C6C3",
"5 	c #DFDFDF",
"6 	c #989A95",
"7 	c #E0E0DF",
"8 	c #92948F",
"9 	c #DEDEDE",
"0 	c #CBCCCB",
"a 	c #91938F",
"b 	c #C9C9C8",
"c 	c #AAABA8",
"d 	c #949691",
"e 	c #D4D5D3",
"f 	c #DDDDDD",
"g 	c #C2C3C0",
"h 	c #A4A5A2",
"i 	c #DCDCDC",
"j 	c #B1B2B0",
"k 	c #8A8C87",
"l 	c #EAEAE9",
"m 	c #D6D6D6",
"n 	c #A9ABA7",
"o 	c #C1C3C1",
"p 	c #DBDBDB",
"q 	c #DEDEDD",
"r 	c #ADAEAB",
"s 	c #B0B2AF",
"t 	c #BEBFBD",
"u 	c #979995",
"v 	c #DFE0DE",
"w 	c #DADADA",
"x 	c #D8D8D8",
"y 	c #B3B4B1",
"z 	c #BABCBA",
"A 	c #9B8F8B",
"B 	c #BFC0BE",
"C 	c #A99592",
"D 	c #946F6B",
"E 	c #B6B3B1",
"F 	c #B50909",
"G 	c #AE0505",
"H 	c #DA3130",
"I 	c #C73A39",
"J 	c #AA0303",
"K 	c #D41A1A",
"L 	c #DC1F1F",
"M 	c #E12121",
"N 	c #AD0505",
"O 	c #DC1E1E",
"P 	c #C41111",
"Q 	c #B00606",
"R 	c #CE1717",
"S 	c #CB1515",
"T 	c #E72525",
"U 	c #C91313",
"V 	c #D71C1C",
"W 	c #B10707",
"X 	c #AE0D0C",
"Y 	c #EF2929",
"Z 	c #BE0D0D",
"` 	c #E22222",
" .	c #B30808",
"..	c #AD0C0B",
"+.	c #AF0808",
"@.	c #CC1515",
"#.	c #C71111",
"$.	c #E32323",
"%.	c #B20909",
"&.	c #B30909",
"*.	c #C51212",
"=.	c #D81A1A",
"-.	c #D01818",
";.	c #B60A0A",
">.	c #A00808",
",.	c #9F0808",
"'.	c #AE0707",
").	c #AC0606",
"!.	c #A90606",
"~.	c #AD0707",
"                                                ",
"          . +                   @ #             ",
"          $ % &               * = - @           ",
"        ; > , '               ) ! ~ {           ",
"        . ] , ^ /           ( _ : < [           ",
"        @ } | 1 2 3       [ 4 5 , 6             ",
"          @ 7 : : 6       8 1 9 0 a             ",
"            * ] 5 b c   d e f , (               ",
"            @ g : f }   h i i j                 ",
"              k l i m n o p q [                 ",
"              @ r 5 p s t i u                   ",
"                k v w x y z /                   ",
"                  A , x B C                     ",
"                  D E   E D                     ",
"              F G H I J I H G F                 ",
"          F K L M M J J J M M L K F             ",
"        N O P Q R S       S R Q P O N           ",
"        T U     V W       W V     U T           ",
"      X Y Z   W `  .       .` W   Z Y ..        ",
"      +.M @.#.$.%.          &.$.#.@.M +.        ",
"        *.=.-.;.>.          ,.;.-.=.*.          ",
"          '.).                  !.~.            ",
"                                                ",
"                                                "};
