/* XPM */
static char * xpm_lasso_xpm[] = {
"20 20 86 1",
" 	c None",
".	c #232221",
"+	c #20201E",
"@	c #7C7C7B",
"#	c #BCBBBA",
"$	c #D4D3D1",
"%	c #CDCCC8",
"&	c #A6A39E",
"*	c #9B9890",
"=	c #9C9890",
"-	c #BBB7B1",
";	c #828282",
">	c #3E3E3E",
",	c #6C6C6B",
"'	c #CCCCCB",
")	c #C3C2C2",
"!	c #9B9A98",
"~	c #61605E",
"{	c #363635",
"]	c #20201F",
"^	c #242321",
"/	c #3B3A35",
"(	c #56534E",
"_	c #7D7A75",
":	c #A3A19E",
"<	c #787774",
"[	c #737170",
"}	c #B8B8B7",
"|	c #989897",
"1	c #363636",
"2	c #161514",
"3	c #5C5A58",
"4	c #686764",
"5	c #767574",
"6	c #9B9B99",
"7	c #6B6B6B",
"8	c #80807E",
"9	c #696866",
"0	c #8B8A88",
"a	c #5A5958",
"b	c #D2D2D1",
"c	c #9F9E9D",
"d	c #8F8E8C",
"e	c #5E5D5B",
"f	c #918F8B",
"g	c #2F2E2C",
"h	c #A3A2A0",
"i	c #ACABA9",
"j	c #A4A3A0",
"k	c #494847",
"l	c #555450",
"m	c #83827F",
"n	c #878683",
"o	c #7F7E7C",
"p	c #A6A4A1",
"q	c #989794",
"r	c #8D8C8A",
"s	c #41403E",
"t	c #868482",
"u	c #BFBDB8",
"v	c #9A9793",
"w	c #A19F9C",
"x	c #676764",
"y	c #63625E",
"z	c #74726E",
"A	c #817F7C",
"B	c #696764",
"C	c #363434",
"D	c #908E8B",
"E	c #A7A49E",
"F	c #5F5C57",
"G	c #6B6A68",
"H	c #676663",
"I	c #302F2D",
"J	c #403E3B",
"K	c #5B5A58",
"L	c #716F6C",
"M	c #464340",
"N	c #5D5B59",
"O	c #131313",
"P	c #282725",
"Q	c #75736F",
"R	c #1E1D1D",
"S	c #878480",
"T	c #8D8D8A",
"U	c #8D8B88",
"                    ",
"                    ",
"                    ",
"           .+.      ",
"       @#$%&*=-;>   ",
"     ,')!~{]^/(_:<  ",
"    [}|1       234  ",
"   56          789  ",
"  {0a         bcde  ",
"   fg       hij5k   ",
"   lmno   pqr5s     ",
"   tuvwxyzAB        ",
"  CDEFGHIJ          ",
"   KLMN{            ",
"    OPQR            ",
"     ST             ",
"    RU              ",
"                    ",
"                    ",
"                    "};
