/* XPM */
static char * xpm_undo_xpm[] = {
"24 24 82 1",
" 	c None",
".	c #C4A000",
"+	c #FBE847",
"@	c #FBE425",
"#	c #FBE52B",
"$	c #F6E344",
"%	c #FBE84E",
"&	c #BD9B00",
"*	c #FAE006",
"=	c #F8E757",
"-	c #FAE84E",
";	c #F9E432",
">	c #F9E434",
",	c #F0DA33",
"'	c #E2C61C",
")	c #F2DF47",
"!	c #F8E75D",
"~	c #F8E75C",
"{	c #F8E761",
"]	c #F8E23C",
"^	c #F8E445",
"/	c #E3C91E",
"(	c #F1DF44",
"_	c #F3E049",
":	c #F3E14C",
"<	c #EEDB3F",
"[	c #D6C004",
"}	c #E6D22C",
"|	c #EFDB33",
"1	c #E7D237",
"2	c #F3E044",
"3	c #E9D532",
"4	c #DAC404",
"5	c #F1E04A",
"6	c #BFA512",
"7	c #E4CE1F",
"8	c #FBE73D",
"9	c #F3DF34",
"0	c #E8D31C",
"a	c #E0C70A",
"b	c #E1CB0B",
"c	c #E7D428",
"d	c #E0CF50",
"e	c #BD9C00",
"f	c #C2A20C",
"g	c #DAC304",
"h	c #B69F0C",
"i	c #CEB828",
"j	c #DDC80D",
"k	c #E1CD1A",
"l	c #EBD94C",
"m	c #BDA215",
"n	c #BEA514",
"o	c #D4BD24",
"p	c #DEC917",
"q	c #EAD947",
"r	c #B8A018",
"s	c #B9A214",
"t	c #E5D226",
"u	c #E6D434",
"v	c #B69D10",
"w	c #BBA011",
"x	c #EDD92C",
"y	c #DCC918",
"z	c #B69A0D",
"A	c #BEA110",
"B	c #EFDB31",
"C	c #CEBC22",
"D	c #B39706",
"E	c #B59F17",
"F	c #F0DF3C",
"G	c #C1A909",
"H	c #AE9307",
"I	c #C2AC18",
"J	c #EADB41",
"K	c #A59007",
"L	c #BFAA1A",
"M	c #E3D010",
"N	c #978602",
"O	c #BAA712",
"P	c #CDB80E",
"Q	c #968503",
"                        ",
"         .              ",
"        ..              ",
"       .+.              ",
"      .@#.              ",
"     .@$%..&            ",
"    .@*=-;>,' .         ",
"   .@)===!~{]^/.        ",
"  .@(_====:<[}|1        ",
"   .@_2:3[[[[[456       ",
"    .@7[@8890abcde      ",
"     f@g@...hijklm      ",
"      .@@.   nopqr      ",
"       .+.    stuv      ",
"        ..    wxyz      ",
"         .    ABCD      ",
"              EFGH      ",
"              IJK       ",
"             LMN        ",
"            OPQ         ",
"                        ",
"                        ",
"                        ",
"                        "};
