/* XPM */
static char * xpm_copy_xpm[] = {
"24 24 54 1",
" 	c None",
".	c #979995",
"+	c #8C8E89",
"@	c #8C8E8A",
"#	c #8D8F8A",
"$	c #898B86",
"%	c #FFFFFF",
"&	c #FEFEFE",
"*	c #F0F0EF",
"=	c #8A8C87",
"-	c #EFEFEE",
";	c #C7C7C6",
">	c #C6C6C5",
",	c #EEEEEE",
"'	c #EEEEED",
")	c #EDEDEC",
"!	c #EDEDED",
"~	c #C5C5C5",
"{	c #C5C5C4",
"]	c #C8C8C7",
"^	c #F4F4F4",
"/	c #ECECEB",
"(	c #EBEBEB",
"_	c #EFEFEF",
":	c #F2F2F2",
"<	c #FCFCFC",
"[	c #C4C4C4",
"}	c #C4C4C3",
"|	c #C3C3C3",
"1	c #CDCDCD",
"2	c #DCDCDC",
"3	c #F9F9F9",
"4	c #8B8D88",
"5	c #EBEBEA",
"6	c #EAEAEA",
"7	c #EAEAE9",
"8	c #ECECEC",
"9	c #F7F7F7",
"0	c #F0F0F0",
"a	c #F1F1F1",
"b	c #BDBEBB",
"c	c #FDFDFD",
"d	c #888A85",
"e	c #FAFAFA",
"f	c #868A84",
"g	c #CFCFCF",
"h	c #BABBB9",
"i	c #E9E9E9",
"j	c #F3F3F3",
"k	c #898D87",
"l	c #B4B5B4",
"m	c #F6F6F6",
"n	c #868A85",
"o	c #878A84",
"                        ",
"                        ",
"                        ",
"                        ",
"                        ",
"        .++++@#+++++++# ",
"        $%&&&&&&&&&&&%+ ",
"        $%***********&+ ",
"        =%**********-&+ ",
"        $%*;;;;;;;;>,&+ ",
"        =%*------'')!&+ ",
"        $%*;;;;;>~~{,&+ ",
"        =%****--'!)'!&+ ",
"        $%*];;>>~~'!^&+ ",
"        =%*-,'))/(_:_<+ ",
"        =%-~~{[}|122:34 ",
"        =%'/(5678_!_:94 ",
"        =%)8/56-0_a:ab$ ",
"        $c/(5680,dddddd ",
"        $e5678__afgghd  ",
"        $96i'aaj^kgld   ",
"        $::a0a^9mnhd    ",
"        #$$dddddofd     ",
"                        "};
