/* XPM */
static char * xpm_new_xpm[] = {
"24 24 135 2",
"  	c None",
". 	c #888A85",
"+ 	c #8A8B83",
"@ 	c #9D9B7B",
"# 	c #B6B06F",
"$ 	c #B9B26E",
"% 	c #FFFFFF",
"& 	c #FEFEFA",
"* 	c #FEF9D0",
"= 	c #FCEF8E",
"- 	c #F7EE8E",
"; 	c #F6EE98",
"> 	c #E4D86F",
", 	c #DEDEDE",
"' 	c #E1E1E1",
") 	c #E0E0E0",
"! 	c #E2E2E2",
"~ 	c #E3E3E3",
"{ 	c #E4E4E4",
"] 	c #E4E4E3",
"^ 	c #E9E5C9",
"/ 	c #F3E785",
"( 	c #F6EC8E",
"_ 	c #F5F2E1",
": 	c #F6F5F3",
"< 	c #F2ECB4",
"[ 	c #FAEA5F",
"} 	c #DFDFDF",
"| 	c #E2E1E1",
"1 	c #E3E2E3",
"2 	c #E3E3E4",
"3 	c #E4E4E0",
"4 	c #EBE6BD",
"5 	c #F4E87E",
"6 	c #F5EDA2",
"7 	c #F5F4F3",
"8 	c #F6F5F5",
"9 	c #F2ECBB",
"0 	c #FAEA5C",
"a 	c #E1E2E1",
"b 	c #E5E5E4",
"c 	c #E5E5E3",
"d 	c #E9E7CA",
"e 	c #F2E893",
"f 	c #F6E980",
"g 	c #F5EFB7",
"h 	c #F6F3DE",
"i 	c #ECE485",
"j 	c #E3E3E2",
"k 	c #E5E5E5",
"l 	c #E5E6E6",
"m 	c #E7E6E6",
"n 	c #E7E7E2",
"o 	c #EAE8CC",
"p 	c #F0E8A4",
"q 	c #F5E982",
"r 	c #FAEE8D",
"s 	c #CAC169",
"t 	c #E6E6E6",
"u 	c #E4E3E4",
"v 	c #E6E6E7",
"w 	c #E7E8E8",
"x 	c #E8E8E8",
"y 	c #E9E9E7",
"z 	c #EBE9DF",
"A 	c #EDE9CE",
"B 	c #FEF9D3",
"C 	c #94947F",
"D 	c #ADAFAC",
"E 	c #E4E4E5",
"F 	c #E7E7E7",
"G 	c #E7E7E8",
"H 	c #E8E8E9",
"I 	c #E9E9EA",
"J 	c #EAEAEA",
"K 	c #EAEBEA",
"L 	c #ECECEC",
"M 	c #888A84",
"N 	c #E5E6E5",
"O 	c #E6E6E5",
"P 	c #E7E7E6",
"Q 	c #E8E9E9",
"R 	c #E9E9E9",
"S 	c #EBEBEB",
"T 	c #EDECED",
"U 	c #E7E6E7",
"V 	c #E8E7E8",
"W 	c #EAEBEB",
"X 	c #ECECEB",
"Y 	c #ECECED",
"Z 	c #EDEDED",
"` 	c #E8E8E7",
" .	c #E9E9E8",
"..	c #ECEDED",
"+.	c #EDEEEE",
"@.	c #EFEEEE",
"#.	c #E9E8E8",
"$.	c #E9E8E9",
"%.	c #EAE9EA",
"&.	c #EBEAEA",
"*.	c #EDEDEE",
"=.	c #EEEEEE",
"-.	c #F0F0EF",
";.	c #AEAFAD",
">.	c #EBEAEB",
",.	c #EBECEB",
"'.	c #EEEEED",
").	c #EFEFEF",
"!.	c #F0F0F0",
"~.	c #F0F1F0",
"{.	c #EDEEED",
"].	c #EFEEEF",
"^.	c #F1F1F1",
"/.	c #F1F1F2",
"(.	c #ECEBEB",
"_.	c #EEEEEF",
":.	c #F2F2F2",
"<.	c #F2F3F3",
"[.	c #EFF0F0",
"}.	c #F0F1F1",
"|.	c #F2F2F1",
"1.	c #F3F2F3",
"2.	c #F3F4F4",
"3.	c #F2F1F2",
"4.	c #F2F3F2",
"5.	c #F3F4F3",
"6.	c #F4F3F4",
"7.	c #F5F4F5",
"8.	c #EEEFEE",
"9.	c #F1F0F1",
"0.	c #F3F3F2",
"a.	c #F4F4F3",
"b.	c #F4F4F4",
"c.	c #F5F5F4",
"d.	c #F5F6F6",
"                                                ",
"                                                ",
"        . . . . . . . . . . . . + @ # $         ",
"      . % % % % % % % % % % % & * = - ; >       ",
"      . % , ' ) ' ! ! ~ { { ] ^ / ( _ : < [     ",
"      . % } ! ' ' ' | ! 1 2 3 4 5 6 7 8 9 0     ",
"      . % ) ~ ! ' a ! ~ { b c d e f g h i       ",
"      . % ' { { ! j 2 { k l m n o p q r s       ",
"      . % ! t k ~ u { k t v w x y z A B C       ",
"      . % D t t { E t t F G H I J K L % M       ",
"      . % { % F N O P G x Q R J S L T % .       ",
"      . % k F x U F V Q R J W S X Y Z % .       ",
"      . % t x R F `  .R J S S L ..+.@.% .       ",
"      . % t R R #.$.%.&.X L Z *.=.@.-.% .       ",
"      . % ;.R J R %.>.,.L Z '.=.).!.~.% .       ",
"      . % F % S &.S L T {.=.].-.!.^./.% .       ",
"      . % x J S (.L ..=.=._.!.^.^.:.<.% .       ",
"      . % x J S Y Z '._.[.!.}.|.:.1.2.% .       ",
"      . % x S S +._.).).~.^.3.4.5.6.7.% .       ",
"      . % x S S 8.).!.9./.:.0.a.b.c.d.% .       ",
"      . % % % % % % % % % % % % % % % % .       ",
"        . . . . . . . . . . . . . . . .         ",
"                                                ",
"                                                "};
