#define desk2_hover_width 10
#define desk2_hover_height 10
static unsigned char desk2_hover_bits[] = {
   0x00, 0x00, 0xff, 0x03, 0xff, 0x03, 0x00, 0x00, 0xff, 0x03, 0xff, 0x03,
   0x00, 0x00, 0xff, 0x03, 0xff, 0x03, 0x00, 0x00 };
