#define desk2_width 10
#define desk2_height 10
static unsigned char desk2_bits[] = {
   0x00, 0x00, 0xff, 0x03, 0xff, 0x03, 0x00, 0x00, 0xff, 0x03, 0xff, 0x03,
   0x00, 0x00, 0xff, 0x03, 0xff, 0x03, 0x00, 0x00 };
