#define desk2_toggled_width 10
#define desk2_toggled_height 10
static unsigned char desk2_toggled_bits[] = {
   0x00, 0x00, 0xff, 0x03, 0xff, 0x03, 0x00, 0x00, 0xff, 0x03, 0xff, 0x03,
   0x00, 0x00, 0xff, 0x03, 0xff, 0x03, 0x00, 0x00 };
