#define shade_width 10
#define shade_height 10
static unsigned char shade_bits[] = {
   0xff, 0x03, 0x01, 0x02, 0xff, 0x03, 0xff, 0x03, 0xff, 0x03, 0xff, 0x03,
   0xff, 0x03, 0xff, 0x03, 0x01, 0x02, 0xff, 0x03 };
