#define shade_hover_width 10
#define shade_hover_height 10
static unsigned char shade_hover_bits[] = {
   0xff, 0x03, 0x01, 0x02, 0xff, 0x03, 0xff, 0x03, 0xff, 0x03, 0xff, 0x03,
   0xff, 0x03, 0xff, 0x03, 0x01, 0x02, 0xff, 0x03 };
