/* XPM */
static char * gftp_mini_logo_xpm[] = {
"52 19 144 2",
"  	c None",
". 	c #324168",
"+ 	c #808798",
"@ 	c #9499A6",
"# 	c #969BA8",
"$ 	c #9297A4",
"% 	c #8F94A0",
"& 	c #8C919E",
"* 	c #8A8F9C",
"= 	c #878C98",
"- 	c #707787",
"; 	c #C2C3C7",
"> 	c #BFC5CD",
", 	c #D5D7DA",
"' 	c #E0E0E1",
") 	c #E1E1E2",
"! 	c #E2E2E3",
"~ 	c #E3E3E4",
"{ 	c #B5B7BA",
"] 	c #2D4068",
"^ 	c #253E68",
"/ 	c #1D3D67",
"( 	c #294C73",
"_ 	c #A8B3BF",
": 	c #DBDBDC",
"< 	c #CECECF",
"[ 	c #CFCFD0",
"} 	c #D0D0D1",
"| 	c #D1D1D2",
"1 	c #DDDDDE",
"2 	c #B2B4B7",
"3 	c #FFFFFF",
"4 	c #304068",
"5 	c #203E67",
"6 	c #123B66",
"7 	c #808FA1",
"8 	c #DEDEDF",
"9 	c #B4B0B4",
"0 	c #423F62",
"a 	c #263E68",
"b 	c #1B3C68",
"c 	c #BABCC0",
"d 	c #DFDFE0",
"e 	c #D3D3D4",
"f 	c #D5D5D6",
"g 	c #D6D6D7",
"h 	c #D7D7D8",
"i 	c #4F3D5D",
"j 	c #243E68",
"k 	c #233D68",
"l 	c #BABCBF",
"m 	c #D8D8D9",
"n 	c #DADADB",
"o 	c #E6E6E7",
"p 	c #453F61",
"q 	c #663A55",
"r 	c #263E67",
"s 	c #B7B9BD",
"t 	c #E4E4E5",
"u 	c #D4D4D5",
"v 	c #EBEBEB",
"w 	c #413F63",
"x 	c #893549",
"y 	c #2C4068",
"z 	c #273E68",
"A 	c #B7B8BC",
"B 	c #E5E5E6",
"C 	c #EDEDED",
"D 	c #B1B3B6",
"E 	c #4E3E5E",
"F 	c #9B3342",
"G 	c #273E67",
"H 	c #B0B2B7",
"I 	c #E7E7E7",
"J 	c #AEB0B4",
"K 	c #733850",
"L 	c #943445",
"M 	c #304168",
"N 	c #979FA8",
"O 	c #E8E8E8",
"P 	c #F1F1F1",
"Q 	c #B4A3A6",
"R 	c #B62F39",
"S 	c #B0313C",
"T 	c #633B57",
"U 	c #AAADB1",
"V 	c #DEDFE2",
"W 	c #E7E7E8",
"X 	c #E9E9E9",
"Y 	c #ECECEC",
"Z 	c #EEEEEE",
"` 	c #F2F2F2",
" .	c #F6F6F6",
"..	c #F4DFE0",
"+.	c #CC5B5C",
"@.	c #9A3443",
"#.	c #78374E",
"$.	c #503D5D",
"%.	c #9B9DA2",
"&.	c #BBBCBF",
"*.	c #BABBBD",
"=.	c #BBBBBD",
"-.	c #BCBDBD",
";.	c #BDBEBE",
">.	c #BDBEBF",
",.	c #BEBEC0",
"'.	c #C1AFB0",
").	c #9EA0A4",
"!.	c #334167",
"~.	c #344266",
"{.	c #324062",
"].	c #333B51",
"^.	c #5B5C5D",
"/.	c #4C4D4E",
"(.	c #2D3547",
"_.	c #2D3959",
":.	c #334164",
"<.	c #434F70",
"[.	c #787D8A",
"}.	c #68696D",
"|.	c #9C9C9C",
"1.	c #9A9A9A",
"2.	c #828282",
"3.	c #77797E",
"4.	c #787D89",
"5.	c #344369",
"6.	c #354367",
"7.	c #3B4255",
"8.	c #3B3F47",
"9.	c #4E4F50",
"0.	c #4D4D4D",
"a.	c #4A4A4A",
"b.	c #4B4B4B",
"c.	c #2E3036",
"d.	c #363A43",
"e.	c #3F465A",
"f.	c #334168",
"g.	c #2D3B5F",
"h.	c #25304D",
"i.	c #1E273F",
"j.	c #1C243A",
"k.	c #1F2941",
"l.	c #283352",
"m.	c #303E64",
". . . . . . . . . . . . . . . . . . . . . . . . . . . . . . . . . . . . . . . . . . . . . . . . . . . . ",
". . . . . . . . . . . . . . . . . . . . . . . . . . . . . . . . . . . . . . . . . . . . . . . . . . . . ",
". . . . . . . . . . . . . . . . . . . . . . . . . . . . . . . . . . . + @ # @ $ % & * = - . . . . . . . ",
". . . . . . . . . . . . . . . . . . . . . . . . . . . . . . . . . . . ; > , ' ) ! ~ ~ ~ { . . . . . . . ",
". . . . . . . . . . . . . . . . . . . . . . . . . . . . . . . . ] ^ / ( _ : < [ } | | 1 2 . . . . . . . ",
". . . . . . . . . . . . 3 3 3 3 3 . 3 3 3 3 3 3 . 3 3 3 3 3 . . 4 5 6 7 ' 8 < } } | | ' 9 0 . . . . . . ",
". . . . . . . . . . . . 3 3 . . . . . . 3 3 . . . 3 3 . . 3 3 . . a b c 1 d e f g h h ~ 2 i 0 . . . . . ",
". . . . . 3 3 3 3 3 . . 3 3 . . . . . . 3 3 . . . 3 3 . . 3 3 . . j k l ~ ) g m n n n o 2 p q . . . . . ",
". . . . 3 3 . . 3 3 . . 3 3 3 3 3 . . . 3 3 . . . 3 3 . . 3 3 . . r a s t ! u g 8 ! ! v 2 w x . . . . . ",
". . . . 3 3 . . 3 3 . . 3 3 . . . . . . 3 3 . . . 3 3 3 3 3 . . . y z A ! B 8 ) ! ~ t C D E F . . . . . ",
". . . . 3 3 . . 3 3 . . 3 3 . . . . . . 3 3 . . . 3 3 . . . . . . . G H I t e u g h m v J K L . . . . . ",
". . . . . 3 3 3 3 3 . . 3 3 . . . . . . 3 3 . . . 3 3 . . . . . . . M N I B m n 1 ! O P Q R S T . . . . ",
". . . . . . . . 3 3 . . . . . . . . . . . . . . . . . . . . . . . . . U V W X Y Z `  ...+.@.#.$.. . . . ",
". . . . . 3 3 3 3 . . . . . . . . . . . . . . . . . . . . . . . . . . %.&.*.=.-.;.>.,.'.).. . . . . . . ",
". . . . . . . . . . . . . . . . . . . . . . . . . . . . . . . . . . . !.~.{.].^./.(._.:.!.. . . . . . . ",
". . . . . . . . . . . . . . . . . . . . . . . . . . . . . . . . . . . <.[.}.|.1.1.2.}.3.4.5.. . . . . . ",
". . . . . . . . . . . . . . . . . . . . . . . . . . . . . . . . . . . 6.7.8.9.0.a.b.c.d.e.f.. . . . . . ",
". . . . . . . . . . . . . . . . . . . . . . . . . . . . . . . . . . . . . g.h.i.j.k.l.m.. . . . . . . . ",
". . . . . . . . . . . . . . . . . . . . . . . . . . . . . . . . . . . . . . . . . . . . . . . . . . . . "};
