/* XPM */
static char * cell_xpm[] = {
"36 36 3 1",
" 	c None",
".	c #222222",
"+	c #666666",
"....................................",
".++++++++++++++++++++++++++++++++++.",
".++++++++++++++++++++++++++++++++++.",
".++++++++++++++++++++++++++++++++++.",
".++++++++++++++++++++++++++++++++++.",
".++++++++++++++++++++++++++++++++++.",
".++++++++++++++++++++++++++++++++++.",
".++++++++++++++++++++++++++++++++++.",
".++++++++++++++++++++++++++++++++++.",
".++++++++++++++++++++++++++++++++++.",
".++++++++++++++++++++++++++++++++++.",
".++++++++++++++++++++++++++++++++++.",
".++++++++++++++++++++++++++++++++++.",
".++++++++++++++++++++++++++++++++++.",
".++++++++++++++++++++++++++++++++++.",
".++++++++++++++++++++++++++++++++++.",
".++++++++++++++++++++++++++++++++++.",
".++++++++++++++++++++++++++++++++++.",
".++++++++++++++++++++++++++++++++++.",
".++++++++++++++++++++++++++++++++++.",
".++++++++++++++++++++++++++++++++++.",
".++++++++++++++++++++++++++++++++++.",
".++++++++++++++++++++++++++++++++++.",
".++++++++++++++++++++++++++++++++++.",
".++++++++++++++++++++++++++++++++++.",
".++++++++++++++++++++++++++++++++++.",
".++++++++++++++++++++++++++++++++++.",
".++++++++++++++++++++++++++++++++++.",
".++++++++++++++++++++++++++++++++++.",
".++++++++++++++++++++++++++++++++++.",
".++++++++++++++++++++++++++++++++++.",
".++++++++++++++++++++++++++++++++++.",
".++++++++++++++++++++++++++++++++++.",
".++++++++++++++++++++++++++++++++++.",
".++++++++++++++++++++++++++++++++++.",
"...................................."};
