<!-- Created with Inkscape (http://www.inkscape.org/) -->
<svg xmlns:rdf="http://www.w3.org/1999/02/22-rdf-syntax-ns#" xmlns="http://www.w3.org/2000/svg" height="250" width="420" version="1.1" xmlns:cc="http://creativecommons.org/ns#" xmlns:xlink="http://www.w3.org/1999/xlink" xmlns:dc="http://purl.org/dc/elements/1.1/">
 <title>SliTaz Spider</title>
 <defs>
  <linearGradient id="g2" x1="707" gradientUnits="userSpaceOnUse" y1="220" gradientTransform="translate(-499,-205)" x2="707" y2="440">
   <stop stop-color="#d66018" stop-opacity="0.95" offset="0"/>
   <stop stop-color="#351a0a" stop-opacity="0.95" offset="1"/>
  </linearGradient>
  <filter id="f1">
   <feGaussianBlur stdDeviation="3"/>
  </filter>
  <linearGradient id="g3" y2="205" gradientUnits="userSpaceOnUse" x2="708" gradientTransform="translate(2,-2)" y1="454" x1="708">
   <stop stop-color="#000" offset="0"/>
   <stop stop-color="#888" offset="1"/>
  </linearGradient>
  <linearGradient id="g4" y2="147" spreadMethod="reflect" gradientUnits="userSpaceOnUse" x2="208" y1="147" x1="114">
   <stop stop-color="#351a0a" offset="0"/>
   <stop stop-color="#000" stop-opacity="0.7" offset="1"/>
  </linearGradient>
 </defs>
 <metadata>
  <rdf:RDF>
   <cc:Work rdf:about="">
    <dc:format>image/svg+xml</dc:format>
    <dc:type rdf:resource="http://purl.org/dc/dcmitype/StillImage"/>
    <dc:title>SliTaz Spider</dc:title>
    <dc:date>2013-05-27</dc:date>
    <dc:description>SLiM theme for SliTaz</dc:description>
   </cc:Work>
  </rdf:RDF>
 </metadata>
 <path id="shadow" opacity="0.4" d="m890,211c-121.5,0.8-243.1-0.1-364.6,0.5-12.4-0.4-19.4,13.7-16.8,24.6,0.3,64.7-0.6,129.5,0.5,194.2,2.6,10.9,15.4,15,25.3,13,121-0.3,242.1,0.7,363.1-0.5,11.3-2.7,15-16.1,13-26.3-0.4-64.1,0.7-128.3-0.6-192.3-2.2-8.7-11.4-13.6-19.9-13.1zm-363.9,8.3c122.9,0.1,245.8-0.2,368.7,0.2,7,1.1,9,9.3,7.7,15.4-0.1,64.2,0.2,128.5-0.2,192.8-1.1,7-9.3,9-15.3,7.7-120.9-0.1-241.8,0.2-362.7-0.2-7-1.1-9-9.3-7.7-15.3,0.1-64.2-0.2-128.5,0.2-192.8,0.8-4.4,4.9-7.9,9.3-7.8z" transform="translate(-501,-203)" filter="url(#f1)" fill="url(#g3)"/>
 <rect id="out_border" opacity="0.95" stroke-opacity="0.6" ry="11.5" height="220" width="390" stroke="#000" y="14" x="14" stroke-width="1" fill="url(#g2)"/>
 <rect id="pass_field" stroke-opacity="0.8" fill-opacity="0.4" ry="4" height="35" width="195" stroke="#000" y="160.5" x="190.5" stroke-width="1" fill="#fefefe"/>
 <rect id="user_field" stroke-opacity="0.8" fill-opacity="0.4" ry="4" height="35" width="195" stroke="#000" y="98.5" x="190.5" stroke-width="1" fill="#fefefe"/>
 <path id="spider" stroke-linejoin="miter" d="m125.7,216.6s16.1-22.3,20.1-33.1c3.8-10.6,3.6-11.4-4.3-17.3-7.3-5.5-14.1-9.1-14.1-9.1s-0.5,2.7-0.1,6c1.8,17.7-8.1,38.2-21.8,44.8-4.5,2.2-12.5,2.4-16.2,0.5-13.1-6.9-16.7-28.2-8.2-48.7,0.5-1.1,0.3-1.6-0.6-1.6-1.8,0-21.6,11.8-23.1,13.8-1.8,2.4-1.4,14.9,0.6,23.0,1,3.9,3.5,10.6,5.7,14.9l3.9,7.9-5.3-5.6c-7.1-7.6-13.8-21.5-16.3-34l-1.9-9.2,2.5-2.1c1.4-1.1,6.3-4.1,10.8-6.6,11.1-6,12.2-7.4,5.4-6.5-16.9,2.1-19.8,2.7-20.7,4.4-4.8,11.9-6.1,39.3-6.1,39.3s-2.7-6.5-3.4-9.9c-1.4-6.7-2-8.8-1.4-20.5,0.8-17.9,0.8-18.0,5.6-18.8,2.1-0.3,7.7-1.2,12.3-1.9,4.6-0.7,10.7-1.6,13.4-1.9,4.9-0.6,6.4-1.9,3.3-2.9-5.2-1.6-26.7-10.2-27.1-10.9-0.8-1.3,4-12.9,7.2-18.8,5.2-9.6,19.5-26.3,19.5-26.3s-15.3,31.5-14.2,39.1c0.5,1.3,24.5,10.4,25.3,9.6,0.3-0.3-3.2-3.6-7.8-7.4s-8.4-7.6-8.5-8.4c-0.2-0.8,1.9-5.2,4.7-9.8,3.6-6,7.7-11.1,14.8-18.2,5.1-5,16.5-13.5,16.5-13.5s-19.3,22.4-24.3,38.9l4.2,4.3c5.8,6,15.7,13.7,16.7,13.1,0.5-0.3,1.1-2.2,1.3-4.4,0.8-5.7,4.6-10.8,10.1-13.6,6.8-3.4,11.4-2.4,16.4,3.5,2.3,2.8,2.5,3.6,2.2,9.4-0.2,3.5-0,6.4,0.3,6.4,1.7,0,24.4-15.7,26.4-18.3,1.2-1.5-0.5-12.4-2.1-18.4-1.8-6.9-8.5-19.6-8.5-19.6s16.2,19,20.2,31.2c2.6,8.1,2.6,8.1,0.8,10.2-1,1.1-6,4.8-11.2,8.2-5.1,3.4-8.3,6.5-8.3,6.5s24.8-7.4,26.7-9.3c1-1,1.7-3.1,1.7-4.8,0.4-12.3-4.4-36-4.4-36s5.8,7.8,8.5,13.7c2.9,6.4,6.5,23.6,6.1,29.2l-0.3,4.1-10.8,4c-5.9,2.2-13.2,4.7-16.2,5.5-5.9,1.7-6.6,3.5-1.5,3.9,7,0.6,27.7,4.1,28.5,4.9,1.1,1.1-1.5,14.1-4.9,25.1-2.4,7.61-12.4,23.7-12.4,23.7s8.6-36.1,5.2-41.2c-0.5-0.4-4.5-1.3-8.9-1.9-4.4-0.6-9.4-1.3-11-1.6-4.3-0.7-3.9,1,0.9,4.1,9.6,6.2,13.9,9.8,13.9,11.7,0,3-8,17.8-13.9,25.6-6.1,8.2-21.8,21.6-21.8,21.6z" stroke="#c5c5c5" stroke-miterlimit="40" stroke-width="2" fill="url(#g4)"/>
</svg>
