<!-- Created with Inkscape (http://www.inkscape.org/) -->
<svg xmlns:rdf="http://www.w3.org/1999/02/22-rdf-syntax-ns#" xmlns="http://www.w3.org/2000/svg" height="250" width="420" version="1.1" xmlns:cc="http://creativecommons.org/ns#" xmlns:xlink="http://www.w3.org/1999/xlink" xmlns:dc="http://purl.org/dc/elements/1.1/">
 <title>Seven legged Spider</title>
 <defs>
  <linearGradient id="g1">
   <stop offset="0" stop-color="#000"/>
   <stop offset="1" stop-color="#CCC"/>
  </linearGradient>
  <linearGradient id="g2" y2="440" gradientUnits="userSpaceOnUse" x2="707" gradientTransform="translate(-499,-205)" y1="220" x1="707">
   <stop offset="0" stop-color="#FFF" stop-opacity="0.8"/>
   <stop offset="1" stop-color="#666" stop-opacity="0.8"/>
  </linearGradient>
  <filter id="f1">
   <feGaussianBlur stdDeviation="3"/>
  </filter>
  <linearGradient id="g3" x1="708" y1="454" x2="708" y2="205" xlink:href="#g1" gradientUnits="userSpaceOnUse" gradientTransform="translate(2,-2)"/>
 </defs>
 <metadata>
  <rdf:RDF>
   <cc:Work rdf:about="">
    <dc:format>image/svg+xml</dc:format>
    <dc:type rdf:resource="http://purl.org/dc/dcmitype/StillImage"/>
    <dc:title>Seven legged Spider</dc:title>
    <dc:date>2013-05-27</dc:date>
    <dc:description>SLiM theme for SliTaz</dc:description>
   </cc:Work>
  </rdf:RDF>
 </metadata>
 <path id="shadow" opacity="0.2" d="m890,211c-121.5,0.8-243.1-0.1-364.6,0.5-12.4-0.4-19.4,13.7-16.8,24.6,0.3,64.7-0.6,129.5,0.5,194.2,2.6,10.9,15.4,15,25.3,13,121-0.3,242.1,0.7,363.1-0.5,11.3-2.7,15-16.1,13-26.3-0.4-64.1,0.7-128.3-0.6-192.3-2.2-8.7-11.4-13.6-19.9-13.1zm-363.9,8.3c122.9,0.1,245.8-0.2,368.7,0.2,7,1.1,9,9.3,7.7,15.4-0.1,64.2,0.2,128.5-0.2,192.8-1.1,7-9.3,9-15.3,7.7-120.9-0.1-241.8,0.2-362.7-0.2-7-1.1-9-9.3-7.7-15.3,0.1-64.2-0.2-128.5,0.2-192.8,0.8-4.4,4.9-7.9,9.3-7.8z" filter="url(#f1)" fill="url(#g3)" transform="translate(-501,-203)"/>
 <rect id="out_border" x="14" y="14" ry="11.5" height="220" width="390" opacity="0.8" stroke-opacity="0.4" stroke="#FFF" stroke-width="1" fill="url(#g2)"/>
 <rect id="pass_field" x="190.5" y="160.5" ry="4" height="35" width="195" fill="#fefefe" fill-opacity="0.4" stroke="#000" stroke-opacity="0.8" stroke-width="1"/>
 <rect id="user_field" x="190.5" y="98.5" ry="4" height="35" width="195" fill="#fefefe" fill-opacity="0.4" stroke="#000" stroke-opacity="0.8" stroke-width="1"/>
 <g transform="matrix(1.0968665,0,0,1.0968665,-233.44764,-179.73575)">
  <path id="l1" stroke="#000" stroke-linecap="round" stroke-width="4" fill="none" d="M237,280c15-14,16-10,34-9"/>
  <path id="l2" stroke="#000" stroke-linecap="round" stroke-width="4" fill="none" d="m232,304c9-11,23-17,37-17,3-0,6-0,9-0"/>
  <path id="l3" stroke="#000" stroke-linecap="round" stroke-width="4" fill="none" d="m252,336c7-18,12-35,31-40"/>
  <path id="l4" stroke="#000" stroke-linecap="round" stroke-width="4" fill="none" d="m299,348c-3-15-4-29,1-42"/>
  <path id="l5" stroke="#000" stroke-linecap="round" stroke-width="4" fill="none" d="m339,245c-22-0-31-6-30,16"/>
  <path id="l6" stroke="#000" stroke-linecap="round" stroke-width="4" fill="none" d="m377,274c-21-12-32-22-53-6"/>
  <path id="l7" stroke="#000" stroke-linecap="round" stroke-width="4" fill="none" d="M385,303c-19-14-35-43-53-26"/>
  <path id="body" fill="#O00" d="m272,271c2,11,5,22,14,29,8,7,20,11,30,7,7-2,13-7,16-13,2-5,2-11,0-16-3-7-9-11-14-15-7-4-14-5-22-8-7-2-15-2-21,3-4,3-6,8-3,13l0,1z"/>
  <path id="mouth" d="m306,287c4,5,9,4,12-1" stroke="#FFF" stroke-linecap="round" stroke-width="4" fill="none"/>
 </g>
 <path id="reye" d="m113,124,1-0" stroke="#FFF" stroke-linecap="round" stroke-width="6" fill="none"/>
 <path id="leye" d="m103,125,1-0" stroke="#FFF" stroke-linecap="round" stroke-width="6" fill="none"/>
</svg>
