/* XPM */
static char * xpm_copy_xpm[] = {
"20 20 18 1",
" 	c None",
".	c #000000",
"+	c #020202",
"@	c #1F1F1F",
"#	c #333333",
"$	c #343434",
"%	c #323232",
"&	c #151515",
"*	c #545454",
"=	c #212121",
"-	c #0A0A0A",
";	c #181818",
">	c #050505",
",	c #191919",
"'	c #303030",
")	c #373737",
"!	c #535353",
"~	c #060606",
"                    ",
"                    ",
"      .........+    ",
"     @.@####$%&.    ",
"      .       *.    ",
"   .= .        .    ",
"   .  .        .    ",
"   .  .        .    ",
"   .  .        .    ",
"   .  .        .    ",
"   .  .        .    ",
"   .  .        .    ",
"   .  .        .    ",
"   .  .        .    ",
"   .  -........;    ",
"   .                ",
"   .>,')))))$!      ",
"    ........~       ",
"                    ",
"                    "};
