/* XPM */
static char * xpm_save_xpm[] = {
"20 20 23 1",
" 	c None",
".	c #090909",
"+	c #000000",
"@	c #131313",
"#	c #040404",
"$	c #1D1D1D",
"%	c #1F1F1F",
"&	c #1A1A1A",
"*	c #171717",
"=	c #050505",
"-	c #0D0D0D",
";	c #060606",
">	c #0E0E0E",
",	c #010101",
"'	c #0F0F0F",
")	c #070707",
"!	c #020202",
"~	c #080808",
"{	c #222222",
"]	c #444444",
"^	c #434343",
"/	c #4A4A4A",
"(	c #0C0C0C",
"                    ",
" .+++++++++@        ",
" +#$%%%%%&+#        ",
" +*       +=        ",
" +-       +;        ",
" +-       +;        ",
" +-       +;        ",
" +>       +; +,,+   ",
" +>       +=        ",
" +'       +) !==!   ",
" +'       +) +##+   ",
" +~       +;        ",
" @+++++++++{ ++++   ",
"  ]^]]]]]^/  ++++   ",
"             ++++   ",
"            (++++(  ",
"             .++.   ",
"              ,,    ",
"                    ",
"                    "};
