/* XPM */
static char * xpm_undo_xpm[] = {
"20 20 19 1",
" 	c None",
".	c #000000",
"+	c #212121",
"@	c #050505",
"#	c #090909",
"$	c #171717",
"%	c #010101",
"&	c #141414",
"*	c #111111",
"=	c #070707",
"-	c #2F2F2F",
";	c #0A0A0A",
">	c #2D2D2D",
",	c #040404",
"'	c #020202",
")	c #131313",
"!	c #121212",
"~	c #0E0E0E",
"{	c #181818",
"                    ",
"                    ",
"                    ",
"           .        ",
"          +@        ",
"         #.@        ",
"       $%..%&&&*    ",
"      =.........    ",
"    *%..........    ",
"    -...........    ",
"      ;.........    ",
"       >,..')!!~    ",
"         {.)        ",
"          ..        ",
"           .        ",
"                    ",
"                    ",
"                    ",
"                    ",
"                    "};
