/* XPM */
static char * xpm_new_xpm[] = {
"20 20 7 1",
" 	c None",
".	c #000000",
"+	c #282828",
"@	c #4E4E4E",
"#	c #4F4F4F",
"$	c #121212",
"%	c #868686",
"                    ",
"                    ",
"                    ",
"     ..........     ",
"     .+@####@+.     ",
"     .        .     ",
"     .        .     ",
"     .        .     ",
"     .        .     ",
"              .     ",
"     ..       .     ",
"     ..       .     ",
"     ..       .     ",
"  ........    .     ",
"  ........ ...$     ",
"  %  ..             ",
"     ..             ",
"     ..             ",
"                    ",
"                    "};
