/* XPM */
static char * xpm_paste_xpm[] = {
"20 20 13 1",
" 	c None",
".	c #060606",
"+	c #000000",
"@	c #0A0A0A",
"#	c #191919",
"$	c #1D1D1D",
"%	c #010101",
"&	c #3B3B3B",
"*	c #282828",
"=	c #070707",
"-	c #0D0D0D",
";	c #0B0B0B",
">	c #030303",
"                    ",
"       .++++.       ",
"      @+#$$#+@      ",
"    %+++    +++%    ",
"    ++++    ++++    ",
"    ++++++++++++    ",
"    ++++++++++++#   ",
"    +++++++++++++   ",
"    ++++       &+   ",
"    ++++        +   ",
"    ++++        +   ",
"    ++++        +   ",
"    ++++        +   ",
"    ++++        +   ",
"    ++++        +   ",
"    ++++        +   ",
"    *+++        +   ",
"       +=-----;>+   ",
"        ++++++++    ",
"                    "};
