/* XPM */
static char * xpm_flood_xpm[] = {
"20 20 3 1",
" 	c None",
".	c #000000",
"+	c #5F5F5F",
"                    ",
"                    ",
"        .           ",
"       ..  .        ",
"      ...  ..       ",
"     ....  ...+++   ",
"    .....  ....++++ ",
"   ......  .....+++ ",
"  .......  ......+++",
" .................++",
" ................ ++",
"  ..............  ++",
"   ............   ++",
"    ..........    ++",
"     ........     ++",
"      ......      ++",
"       ....       ++",
"        ..        ++",
"                    ",
"                    "};
