/* XPM */
static char * xpm_paint_xpm[] = {
"20 20 7 1",
" 	c None",
".	c #000000",
"+	c #5F5F5F",
"@	c #C8C8FF",
"#	c #FFFFC8",
"$	c #DBDBB4",
"%	c #B6B678",
"                    ",
"             .....  ",
"            ..+@+.  ",
"           ..+@++.  ",
"          ..+@+++.  ",
"         ..+@+++..  ",
"        ..+@+++...  ",
"       ..+@+++...   ",
"      ..+@+++...    ",
"     ..+@+++...     ",
"    ..+@+++...      ",
"    .#$+++...       ",
"   .$#$%+...        ",
"   .#$%%%..         ",
"  .$#%%%..          ",
"  .+%%..            ",
" .+...              ",
" ...                ",
" ..                 ",
"                    "};
