/* XPM */
static char * xpm_open_xpm[] = {
"20 20 22 1",
" 	c None",
".	c #000000",
"+	c #303030",
"@	c #353535",
"#	c #363636",
"$	c #343434",
"%	c #2B2B2B",
"&	c #2A2A2A",
"*	c #292929",
"=	c #313131",
"-	c #6F6F6F",
";	c #6C6C6C",
">	c #6D6D6D",
",	c #5B5B5B",
"'	c #7D7D7D",
")	c #B2B2B2",
"!	c #B3B3B3",
"~	c #444444",
"{	c #0D0D0D",
"]	c #171717",
"^	c #151515",
"/	c #080808",
"                    ",
"                    ",
"   .....            ",
"   +@@#$%&&&&&&*=   ",
"   -;;;;>>>>>>>>,   ",
"  ................  ",
"  ................  ",
"  ......')))! ~...  ",
"  ......       ...  ",
"  ......       ...  ",
"  ......       ...  ",
"  ......       ...  ",
"  ......       ...  ",
"  ......       ...  ",
"   .....       ..   ",
"       .            ",
"        {]]]]^/     ",
"        .......     ",
"                    ",
"                    "};
