/* XPM */
static char * xpm_redo_xpm[] = {
"20 20 19 1",
" 	c None",
".	c #000000",
"+	c #050505",
"@	c #212121",
"#	c #090909",
"$	c #111111",
"%	c #141414",
"&	c #010101",
"*	c #171717",
"=	c #070707",
"-	c #2F2F2F",
";	c #0A0A0A",
">	c #0E0E0E",
",	c #121212",
"'	c #131313",
")	c #020202",
"!	c #040404",
"~	c #2D2D2D",
"{	c #181818",
"                    ",
"                    ",
"                    ",
"        .           ",
"        +@          ",
"        +.#         ",
"    $%%%&..&*       ",
"    .........=      ",
"    ..........&$    ",
"    ...........-    ",
"    .........;      ",
"    >,,')..!~       ",
"        '.{         ",
"        ..          ",
"        .           ",
"                    ",
"                    ",
"                    ",
"                    ",
"                    "};
