/* XPM */
static char * xpm_cut_xpm[] = {
"20 20 25 1",
" 	c None",
".	c #060606",
"+	c #000000",
"@	c #010101",
"#	c #1D1D1D",
"$	c #1E1E1E",
"%	c #070707",
"&	c #0E0E0E",
"*	c #080808",
"=	c #202020",
"-	c #242424",
";	c #0B0B0B",
">	c #181818",
",	c #292929",
"'	c #050505",
")	c #0A0A0A",
"!	c #3E3E3E",
"~	c #1C1C1C",
"{	c #151515",
"]	c #0C0C0C",
"^	c #161616",
"/	c #020202",
"(	c #040404",
"_	c #1B1B1B",
":	c #030303",
"                    ",
"                    ",
"     .        .     ",
"     +.      .+     ",
"     @+      +@     ",
"     #++    ++$     ",
"      %+&  &+*      ",
"      =++  ++-      ",
"       *& @+;       ",
"       >  ++,       ",
"         '+)        ",
"         +@         ",
"         '!         ",
"      ~&+  {]~      ",
"     ;;^+  +^;;     ",
"     +  +  +  +     ",
"     /#'    (_:     ",
"      +      +      ",
"                    ",
"                    "};
