<!-- Created with Inkscape (http://www.inkscape.org/) -->
<svg xmlns:rdf="http://www.w3.org/1999/02/22-rdf-syntax-ns#" xmlns="http://www.w3.org/2000/svg" height="250" width="420" version="1.1" xmlns:cc="http://creativecommons.org/ns#" xmlns:xlink="http://www.w3.org/1999/xlink" xmlns:dc="http://purl.org/dc/elements/1.1/">
 <title>Cat and Spider</title>
 <defs>
  <linearGradient id="g1">
   <stop offset="0" stop-color="#000"/>
   <stop offset="1" stop-color="#CCC"/>
  </linearGradient>
  <linearGradient id="g2" y2="440" gradientUnits="userSpaceOnUse" x2="707" gradientTransform="translate(-499,-205)" y1="220" x1="707">
   <stop offset="0" stop-color="#FFF" stop-opacity="0.8"/>
   <stop offset="1" stop-color="#666" stop-opacity="0.8"/>
  </linearGradient>
  <filter id="f1">
   <feGaussianBlur stdDeviation="3"/>
  </filter>
  <linearGradient id="g3" x1="708" y1="454" x2="708" y2="205" xlink:href="#g1" gradientUnits="userSpaceOnUse" gradientTransform="translate(2,-2)"/>
 </defs>
 <metadata>
  <rdf:RDF>
   <cc:Work rdf:about="">
    <dc:format>image/svg+xml</dc:format>
    <dc:type rdf:resource="http://purl.org/dc/dcmitype/StillImage"/>
    <dc:title>Cat and Spider</dc:title>
    <dc:date>2013-05-26</dc:date>
    <dc:description>SLiM theme for SliTaz</dc:description>
   </cc:Work>
  </rdf:RDF>
 </metadata>
 <path id="shadow" opacity="0.2" d="m890,211c-121.5,0.8-243.1-0.1-364.6,0.5-12.4-0.4-19.4,13.7-16.8,24.6,0.3,64.7-0.6,129.5,0.5,194.2,2.6,10.9,15.4,15,25.3,13,121-0.3,242.1,0.7,363.1-0.5,11.3-2.7,15-16.1,13-26.3-0.4-64.1,0.7-128.3-0.6-192.3-2.2-8.7-11.4-13.6-19.9-13.1zm-363.9,8.3c122.9,0.1,245.8-0.2,368.7,0.2,7,1.1,9,9.3,7.7,15.4-0.1,64.2,0.2,128.5-0.2,192.8-1.1,7-9.3,9-15.3,7.7-120.9-0.1-241.8,0.2-362.7-0.2-7-1.1-9-9.3-7.7-15.3,0.1-64.2-0.2-128.5,0.2-192.8,0.8-4.4,4.9-7.9,9.3-7.8z" filter="url(#f1)" fill="url(#g3)" transform="translate(-501,-203)"/>
 <rect id="out_border" x="14" y="14" ry="11.5" height="220" width="390" opacity="0.8" stroke-opacity="0.4" stroke="#FFF" stroke-width="1" fill="url(#g2)"/>
 <rect id="pass_field" x="190.5" y="160.5" ry="4" height="35" width="195" fill="#fefefe" fill-opacity="0.4" stroke="#000" stroke-opacity="0.8" stroke-width="1"/>
 <rect id="user_field" x="190.5" y="98.5" ry="4" height="35" width="195" fill="#fefefe" fill-opacity="0.4" stroke="#000" stroke-opacity="0.8" stroke-width="1"/>
 <path id="spider_body" fill="#000" d="m755,110-1,66.5s-4.6,0.2-8.2-0.4c-3.1-0.5-5.2-1.5-8-4.3-2.9-3-5.9-6.4-10-7.3-6.3-1.3-12.5,1.6-18.5,3.6,5.4-1,10.9-2,16.3-1.1,3,0.5,6.3,3.3,8.6,6.4,1.7,2.3,3.1,5.5,2,7.7-0.8,1.6-4.1,1.4-5,1.3-3.2-0.2-6.2-3.2-10.7-2.9-4.4,0.2-16.9,6.3-23.1,11.5,8.1-2.6,15.5-7.1,23.7-6.8,3.6,0.1,6.9,1.7,10.2,3.8,1.2,0.7-0.5,2-1.5,2.2-4.4,0.7-9.3-0.8-13.3,1.3-3.5,1.9-5.9,5.4-7.7,9.3-0.8,1.8-1.4,3.5-2.2,5.3,2.3-2.1,3.9-5.1,6.4-6.8,3.2-2.2,6.3-3.5,10.3-3.8,3.3-0.2,5.3,0.3,5.9,1.7,2.8,6.2,2.9,11,6.8,14.6,6.6,6,14,8.7,20.3,8.4,6.9-0.3,11.3-6.9,18.4-6.9,3.4,0,6.8,3.5,8.2,6.2,2.5,4.9,3,17.3,3,17.3s3.3-9.3,3.5-13.5c0.5-10.7-13.3-17.8-13.3-17.8s9.6-1,14.3,0.5,12.9,15.2,12.9,15.2-3.9-15.3-9.5-19.3c-3.4-2.4-12.3,0-15.4-3.9-1.1-1.4,0.5-2.9,2.9-3.4,4.7-1.1,12.1-2.1,14.3-0.5,4.1,3.2,10.9,14,10.9,14s-2.4-11-6.6-15.3c-2-2-4.6-3.3-7.5-3.3-4.7,0-14,1.3-14,1.3s-6.5-5.7-10-8.3c-2.8-2.1-8.8-5.8-8.8-5.8l1.5-66.6z" transform="matrix(0.66,0,0,0.66,-130,-58)"/>
 <path id="spider_eyes" fill="#FFF" d="m357.5,72.7c-2.2,0.2-3.2,3.8-2.7,5.9,0.3,1.3,1.9,2.5,3.2,2.3,1.5-0.2,2.9-2.0,3-3.6,0-1.7-1.5-4.6-3.4-4.4v-0.2zm13.2,5.5c-1.1,0-2.2,0.5-3,1.2-1.4,1.2-2.6,3.7-1.5,5.2,0.9,1.3,3.4,1,4.6,0.1,1.7-1.2,2.8-4.4,1.4-5.9-0.4-0.4-0.9-0.5-1.6-0.5z"/>
 <path id="cat_body" fill="#000" d="m128.1,78.6c-4,3.2-5.5,8.4-8,12.7-2.8,5.7-6.7,12.6-14.1,12.6-8.6,0.3-16.8,2.2-24.9,5.7-4.3,1.8-8.4,6-13.4,3.8-8.4-3.4-17.2-6.5-25.9-9-1.7,2-0.9,5.1-0.9,7.5,2.3,9.4,6.2,18.3,9.8,27.4,1.1,2.8,3.4,8.2,3.4,8.2s-7.4,0.7-17.4,7.1c-4.8,3-11.9,9-19.7,16.4,10-5.8,13.5-9.3,19.5-13.2,5.3-3.5,12-7.6,19.3-8.1,1.2,2.4,1.5,2.4,2.6,5.5-14.7,2.7-18.2,7.5-28.6,14.9-6.5,4.5-13.1,11.7-13.1,11.7s8.4-5.9,11.3-8.1c7.2-5.3,14.5-10.1,20-12.9,3.6-1.8,11.7-3.9,11.7-3.9l3.3,4.8s-7.7,5.3-12.7,10.1c-3.8,3.6-6.6,8.1-6.6,8.1s4.2-3.6,8.3-7.3,6.5-5.4,12.0-9.3c5.2,5.3,8.8,11.9,11.7,18.7,1.5,4.8-3,8.2-6.8,10-5.9,3-12.9,6.9-13.6,14.1-0.8,1.8-0.1,7-2.8,6-4-3.2-6.7-8-9.4-12.3-3.2-8.8-0.1-18.7-4-27.3-2.8-3.4-6.5,0.9-8.1,3.4-5.1,9.3-2.3,20.8,2.4,29.7,5.1,10.3,13.2,19.2,23,25.2,4.2,2.6,10.6,3.2,13.5-1.5,1.5-3.2,4.4-1.1,6.6,0.1,3.9,2,8.2,4.4,12.7,3.2,0.2-2.8,0.5-5.3,0.5-5.3s1.6-0.3,2.1,0.3c1.2,1.3,0.9,3.8,1.5,4.2s2.4-0.3,3.0-2.2c3.1-9,1.7-18.6,1.4-27.9-0.1-5.1-1.3-10-3.7-14.5-1.5-3.3-0.7-7.7,3.8-8.5,11.5-1.8,22.4-2.4,33.1-6.5,6.1-2.4,10.7-7.3,14.6-12.4,3.8-4.2,6.7-14.9,6.7-14.9s13.6,2.6,22.6,6.2c5.8,2.3,13.7,5.9,13.7,5.9s-3.8-3.1-11-6.7c-9.4-4.7-25-7.5-25-7.5l-0.2-4.5s20.9-0.8,30.8,0.1c7.7,0.7,18.5,1.7,18.5,1.7s-2.6-2.6-11.2-3.5c-12.1-1.1-39.2-0.8-39.2-0.8s-0.1-2.7-0.2-4.1c5.8-4,13.3-2.7,16.7-2.4,3,0.3,18.1,3.2,18.1,3.2s-2.7-1.6-12.1-3.6c-7.3-1.5-16.8-3.6-23.3,0.3-3-5.7-3.7-10.6-6.3-16.2-3.2-6.7-12.5-33.5-15.7-34.8z"/>
 <path id="cat_lear" fill="#FFF" d="m46.2,109.6c4-0.3,10.4,4.6,14.3,7.8-3.3,3.1-5.5,4.4-9.2,6.7-1.9-2.8-6.3-9.3-5.1-14.5z"/>
 <path id="cat_rear" fill="#FFF" d="m128.7,83.9c3.4,3.8,4.4,9.5,5.5,15.3-4.3,0.1-5.9-0.1-10.2-0.1-0.5-5.3,1.1-12.7,4.6-15.2z"/>
 <path id="cat_leye" fill="#FFF" d="m90,138a6.3,5.8,0,1,1,-12.6,0,6.3,5.8,0,1,1,12.6,0z" transform="matrix(2.97,0,0,3.06,-165.41,-285.23)"/>
 <path id="cat_reye" fill="#FFF" d="m141,125a18.1,17.6,0,1,1,-36.2,0,18.1,17.6,0,1,1,36.2,0z" transform="matrix(1.02,0,0,1.01,-2.38,-1.38)"/>
 <path id="cat_lpup" fill="#000" d="m98,134a2.6,2.2,0,1,1,-5.3,0,2.6,2.2,0,1,1,5.3,0z" transform="matrix(1.03,-0.21,0.21,1,-31.17,19.84)"/>
 <path id="cat_rpup" fill="#000" d="m138,123a3.2,2.3,0,1,1,-6.4,0,3.2,2.3,0,1,1,6.4,0z" transform="matrix(0.88,0,0,0.98,16.16,2.13)"/>
</svg>
